<?xml version="1.0" encoding="UTF-8" standalone="no"?>
<!-- Created with Inkscape (http://www.inkscape.org/) -->
<svg xmlns:dc="http://purl.org/dc/elements/1.1/" xmlns:cc="http://creativecommons.org/ns#" xmlns:rdf="http://www.w3.org/1999/02/22-rdf-syntax-ns#" xmlns:svg="http://www.w3.org/2000/svg" xmlns="http://www.w3.org/2000/svg" xmlns:sodipodi="http://sodipodi.sourceforge.net/DTD/sodipodi-0.dtd" xmlns:inkscape="http://www.inkscape.org/namespaces/inkscape" version="1.1" id="svg2" xml:space="preserve" width="1062.3467" height="1100.2" viewBox="0 0 1062.3467 1100.2" sodipodi:docname="blocmarque_pref_region_auvergne_rhone_alpes.svg" inkscape:version="0.92.5 (2060ec1f9f, 2020-04-08)"><metadata id="metadata8"><rdf:RDF><cc:Work rdf:about=""><dc:format>image/svg+xml</dc:format><dc:type rdf:resource="http://purl.org/dc/dcmitype/StillImage"/><dc:title/></cc:Work></rdf:RDF></metadata><defs id="defs6"/><sodipodi:namedview pagecolor="#ffffff" bordercolor="#666666" borderopacity="1" objecttolerance="10" gridtolerance="10" guidetolerance="10" inkscape:pageopacity="0" inkscape:pageshadow="2" inkscape:window-width="1920" inkscape:window-height="1080" id="namedview4" showgrid="false" inkscape:zoom="0.21450646" inkscape:cx="16.037346" inkscape:cy="550.09998" inkscape:window-x="0" inkscape:window-y="0" inkscape:window-maximized="0" inkscape:current-layer="g10"/><g id="g10" inkscape:groupmode="layer" inkscape:label="ink_ext_XXXXXX" transform="matrix(1.3333333,0,0,-1.3333333,0,1100.2)"><g id="g12" transform="scale(0.1)"><path d="m 968.07,6046.62 v -157.89 h 85.72 c 54.13,0 86.61,28.86 86.61,80.29 0,47.82 -32.48,77.6 -86.61,77.6 z m -128.117,109.17 h 208.417 c 138.95,0 223.76,-71.28 223.76,-188.57 0,-116.39 -84.81,-187.67 -223.76,-187.67 h -80.3 V 5524.22 H 839.953 v 631.57" style="fill:#231f20;fill-opacity:1;fill-rule:nonzero;stroke:none" id="path14" inkscape:connector-curvature="0"/><path d="m 1505.82,6046.62 v -157.89 h 72.19 c 54.13,0 85.71,28.86 85.71,80.29 0,47.82 -31.58,77.6 -85.71,77.6 z m -128.11,109.17 h 193.08 c 138.95,0 224.66,-71.28 224.66,-188.57 0,-75.79 -36.99,-132.63 -101.05,-163.31 l 198.49,-279.69 h -153.38 l -167.82,255.33 h -65.87 v -255.33 h -128.11 v 631.57" style="fill:#231f20;fill-opacity:1;fill-rule:nonzero;stroke:none" id="path16" inkscape:connector-curvature="0"/><path d="m 2096.82,6209.93 101.95,121.8 h 131.73 l -117.29,-121.8 z m -124.51,-54.14 h 368.11 v -109.17 h -240 v -146.16 h 203.92 v -109.18 h -203.92 v -157.89 h 240 v -109.17 h -368.11 v 631.57" style="fill:#231f20;fill-opacity:1;fill-rule:nonzero;stroke:none" id="path18" inkscape:connector-curvature="0"/><path d="m 2489.31,6155.79 h 368.12 v -109.17 h -240 v -146.16 h 203.91 v -109.18 h -203.91 v -267.06 h -128.12 v 631.57" style="fill:#231f20;fill-opacity:1;fill-rule:nonzero;stroke:none" id="path20" inkscape:connector-curvature="0"/><path d="m 2970.23,6155.79 h 368.12 v -109.17 h -240 v -146.16 h 203.91 v -109.18 h -203.91 v -157.89 h 240 v -109.17 h -368.12 v 631.57" style="fill:#231f20;fill-opacity:1;fill-rule:nonzero;stroke:none" id="path22" inkscape:connector-curvature="0"/><path d="m 3435.81,6155.79 h 517.9 V 6039.4 h -194.89 v -515.18 h -128.11 v 515.18 h -194.9 v 116.39" style="fill:#231f20;fill-opacity:1;fill-rule:nonzero;stroke:none" id="path24" inkscape:connector-curvature="0"/><path d="M 968.07,5128.69 V 4729.9 h 121.81 c 117.29,0 202.11,87.52 202.11,199.39 0,112.79 -84.82,199.4 -202.11,199.4 z m -128.117,116.39 h 248.117 c 200.3,0 335.64,-145.26 335.64,-315.79 0,-170.52 -135.34,-315.79 -335.64,-315.79 H 839.953 v 631.58" style="fill:#231f20;fill-opacity:1;fill-rule:nonzero;stroke:none" id="path26" inkscape:connector-curvature="0"/><path d="m 1547.34,5245.08 h 368.12 v -109.17 h -240 v -146.17 h 203.91 v -109.17 h -203.91 v -157.89 h 240 V 4613.5 h -368.12 v 631.58" style="fill:#231f20;fill-opacity:1;fill-rule:nonzero;stroke:none" id="path28" inkscape:connector-curvature="0"/><path d="m 2298.93,5245.08 h 128.12 V 4729.9 h 240 v -116.4 h -368.12 v 631.58" style="fill:#231f20;fill-opacity:1;fill-rule:nonzero;stroke:none" id="path30" inkscape:connector-curvature="0"/><path d="m 3137.14,4886.89 -86.62,237.29 -86.61,-237.29 z m -170.53,358.19 h 167.83 l 239.09,-631.58 h -136.24 l -60.45,164.21 h -252.63 l -60.45,-164.21 h -136.24 l 239.09,631.58" style="fill:#231f20;fill-opacity:1;fill-rule:nonzero;stroke:none" id="path32" inkscape:connector-curvature="0"/><path d="m 3833.69,5135.91 v -157.9 h 72.19 c 54.13,0 85.71,28.88 85.71,80.31 0,47.82 -31.58,77.59 -85.71,77.59 z m -128.11,109.17 h 193.08 c 138.95,0 224.66,-71.27 224.66,-188.57 0,-75.79 -36.99,-132.63 -101.05,-163.31 l 198.49,-279.7 h -153.37 l -167.83,255.34 h -65.87 V 4613.5 h -128.11 v 631.58" style="fill:#231f20;fill-opacity:1;fill-rule:nonzero;stroke:none" id="path34" inkscape:connector-curvature="0"/><path d="m 4424.69,5299.22 101.95,121.8 h 131.73 l -117.29,-121.8 z m -124.51,-54.14 h 368.11 v -109.17 h -240 v -146.17 h 203.92 v -109.17 h -203.92 v -157.89 h 240 V 4613.5 h -368.11 v 631.58" style="fill:#231f20;fill-opacity:1;fill-rule:nonzero;stroke:none" id="path36" inkscape:connector-curvature="0"/><path d="m 5240.34,4770.5 v 106.46 h -160.59 v 116.4 h 288.72 v -268.88 c -58.64,-78.5 -156.99,-129.02 -275.19,-129.02 -204.81,0 -344.65,153.38 -344.65,333.83 0,180.45 136.24,333.84 335.63,333.84 114.58,0 208.42,-51.43 266.16,-128.12 l -101.05,-78.5 c -36.09,51.43 -92.93,86.62 -165.11,86.62 -119.1,0 -203.91,-92.94 -203.91,-213.84 0,-120.89 89.32,-213.83 212.93,-213.83 59.55,0 110.98,20.75 147.06,55.04" style="fill:#231f20;fill-opacity:1;fill-rule:nonzero;stroke:none" id="path38" inkscape:connector-curvature="0"/><path d="m 5511.05,5245.08 h 128.12 V 4613.5 h -128.12 v 631.58" style="fill:#231f20;fill-opacity:1;fill-rule:nonzero;stroke:none" id="path40" inkscape:connector-curvature="0"/><path d="m 6300.53,4929.29 c 0,120.9 -84.81,213.84 -203.01,213.84 -119.1,0 -203.9,-92.94 -203.9,-213.84 0,-120.89 84.8,-213.83 203.9,-213.83 118.2,0 203.01,92.94 203.01,213.83 z m 131.73,0 c 0,-180.45 -136.24,-333.83 -334.74,-333.83 -199.39,0 -335.63,153.38 -335.63,333.83 0,180.45 136.24,333.84 335.63,333.84 198.5,0 334.74,-153.39 334.74,-333.84" style="fill:#231f20;fill-opacity:1;fill-rule:nonzero;stroke:none" id="path42" inkscape:connector-curvature="0"/><path d="m 6554.98,5245.08 h 164.22 l 282.4,-452.03 v 452.03 h 128.12 V 4613.5 h -164.21 l -282.4,453.84 V 4613.5 h -128.13 v 631.58" style="fill:#231f20;fill-opacity:1;fill-rule:nonzero;stroke:none" id="path44" inkscape:connector-curvature="0"/><path d="m 1170.18,3976.18 -86.62,237.28 -86.615,-237.28 z m -170.528,358.19 h 167.818 l 239.1,-631.58 H 1270.33 L 1209.88,3867 H 957.25 L 896.801,3702.79 H 760.559 l 239.093,631.58" style="fill:#231f20;fill-opacity:1;fill-rule:nonzero;stroke:none" id="path46" inkscape:connector-curvature="0"/><path d="m 1851.4,4334.37 h 128.12 v -384.36 c 0,-166.02 -97.45,-265.27 -256.24,-265.27 -157.9,0 -255.34,99.25 -255.34,265.27 v 384.36 h 128.13 v -395.18 c 0,-84.82 47.81,-134.45 128.11,-134.45 78.5,0 127.22,49.63 127.22,134.45 v 395.18" style="fill:#231f20;fill-opacity:1;fill-rule:nonzero;stroke:none" id="path48" inkscape:connector-curvature="0"/><path d="m 2195.18,4334.37 186.76,-493.53 186.76,493.53 h 136.24 l -239.09,-631.58 h -167.82 l -239.09,631.58 h 136.24" style="fill:#231f20;fill-opacity:1;fill-rule:nonzero;stroke:none" id="path50" inkscape:connector-curvature="0"/><path d="m 2802.41,4334.37 h 368.11 v -109.18 h -240 v -146.16 h 203.92 v -109.17 h -203.92 v -157.89 h 240 v -109.18 h -368.11 v 631.58" style="fill:#231f20;fill-opacity:1;fill-rule:nonzero;stroke:none" id="path52" inkscape:connector-curvature="0"/><path d="M 3447.53,4225.19 V 4067.3 h 72.18 c 54.14,0 85.71,28.88 85.71,80.3 0,47.83 -31.57,77.59 -85.71,77.59 z m -128.12,109.18 h 193.08 c 138.95,0 224.66,-71.28 224.66,-188.57 0,-75.79 -36.99,-132.63 -101.04,-163.31 l 198.49,-279.7 h -153.39 l -167.82,255.34 h -65.86 v -255.34 h -128.12 v 631.58" style="fill:#231f20;fill-opacity:1;fill-rule:nonzero;stroke:none" id="path54" inkscape:connector-curvature="0"/><path d="m 4345.31,3859.78 v 106.47 H 4184.7 v 116.39 h 288.72 v -268.87 c -58.64,-78.5 -156.99,-129.03 -275.18,-129.03 -204.81,0 -344.66,153.39 -344.66,333.84 0,180.45 136.24,333.84 335.63,333.84 114.59,0 208.43,-51.44 266.17,-128.13 l -101.05,-78.49 c -36.09,51.42 -92.93,86.62 -165.12,86.62 -119.09,0 -203.9,-92.94 -203.9,-213.84 0,-120.9 89.32,-213.84 212.93,-213.84 59.55,0 110.97,20.76 147.07,55.04" style="fill:#231f20;fill-opacity:1;fill-rule:nonzero;stroke:none" id="path56" inkscape:connector-curvature="0"/><path d="m 4616.01,4334.37 h 164.21 l 282.4,-452.03 v 452.03 h 128.12 v -631.58 h -164.2 l -282.42,453.84 v -453.84 h -128.11 v 631.58" style="fill:#231f20;fill-opacity:1;fill-rule:nonzero;stroke:none" id="path58" inkscape:connector-curvature="0"/><path d="m 5367.6,4334.37 h 368.13 v -109.18 h -240 v -146.16 h 203.9 v -109.17 h -203.9 v -157.89 h 240 V 3702.79 H 5367.6 v 631.58" style="fill:#231f20;fill-opacity:1;fill-rule:nonzero;stroke:none" id="path60" inkscape:connector-curvature="0"/><path d="m 6053.33,3988.81 v -110.98 h -243.6 v 110.98 h 243.6" style="fill:#231f20;fill-opacity:1;fill-rule:nonzero;stroke:none" id="path62" inkscape:connector-curvature="0"/><path d="M 968.07,3314.49 V 3156.6 h 72.19 c 54.13,0 85.71,28.87 85.71,80.29 0,47.82 -31.58,77.6 -85.71,77.6 z m -128.117,109.17 h 193.087 c 138.95,0 224.66,-71.28 224.66,-188.57 0,-75.79 -36.99,-132.63 -101.06,-163.31 l 198.5,-279.69 h -153.38 l -167.82,255.33 H 968.07 V 2792.09 H 839.953 v 631.57" style="fill:#231f20;fill-opacity:1;fill-rule:nonzero;stroke:none" id="path64" inkscape:connector-curvature="0"/><path d="m 1434.55,3423.66 h 128.12 v -251.73 h 318.49 v 251.73 h 128.13 v -631.57 h -128.13 v 263.45 h -318.49 v -263.45 h -128.12 v 631.57" style="fill:#231f20;fill-opacity:1;fill-rule:nonzero;stroke:none" id="path66" inkscape:connector-curvature="0"/><path d="m 2299.84,3477.8 102.85,121.8 h 130.83 l 101.05,-121.8 h -101.96 l -64.96,67.67 -65.86,-67.67 z m 370.82,-369.93 c 0,120.91 -84.81,213.84 -203.01,213.84 -119.09,0 -203.91,-92.93 -203.91,-213.84 0,-120.9 84.82,-213.83 203.91,-213.83 118.2,0 203.01,92.93 203.01,213.83 z m 131.73,0 c 0,-180.45 -136.24,-333.83 -334.74,-333.83 -199.4,0 -335.64,153.38 -335.64,333.83 0,180.46 136.24,333.84 335.64,333.84 198.5,0 334.74,-153.38 334.74,-333.84" style="fill:#231f20;fill-opacity:1;fill-rule:nonzero;stroke:none" id="path68" inkscape:connector-curvature="0"/><path d="m 2925.12,3423.66 h 164.21 l 282.4,-452.03 v 452.03 h 128.13 v -631.57 h -164.21 l -282.41,453.83 v -453.83 h -128.12 v 631.57" style="fill:#231f20;fill-opacity:1;fill-rule:nonzero;stroke:none" id="path70" inkscape:connector-curvature="0"/><path d="m 3676.71,3423.66 h 368.13 v -109.17 h -240 v -146.16 h 203.9 v -109.18 h -203.9 v -157.89 h 240 v -109.17 h -368.13 v 631.57" style="fill:#231f20;fill-opacity:1;fill-rule:nonzero;stroke:none" id="path72" inkscape:connector-curvature="0"/><path d="m 4362.45,3078.1 v -110.97 h -243.61 v 110.97 h 243.61" style="fill:#231f20;fill-opacity:1;fill-rule:nonzero;stroke:none" id="path74" inkscape:connector-curvature="0"/><path d="m 4790.13,3065.47 -86.61,237.29 -86.62,-237.29 z m -170.52,358.19 h 167.81 l 239.11,-631.57 h -136.24 l -60.45,164.21 H 4577.2 l -60.45,-164.21 h -136.24 l 239.1,631.57" style="fill:#231f20;fill-opacity:1;fill-rule:nonzero;stroke:none" id="path76" inkscape:connector-curvature="0"/><path d="m 5123.98,3423.66 h 128.12 v -515.19 h 240 v -116.38 h -368.12 v 631.57" style="fill:#231f20;fill-opacity:1;fill-rule:nonzero;stroke:none" id="path78" inkscape:connector-curvature="0"/><path d="M 5733.02,3314.49 V 3156.6 h 85.71 c 54.13,0 86.62,28.87 86.62,80.29 0,47.82 -32.49,77.6 -86.62,77.6 z m -128.12,109.17 h 208.42 c 138.95,0 223.76,-71.28 223.76,-188.57 0,-116.39 -84.81,-187.67 -223.76,-187.67 h -80.3 V 2792.09 H 5604.9 v 631.57" style="fill:#231f20;fill-opacity:1;fill-rule:nonzero;stroke:none" id="path80" inkscape:connector-curvature="0"/><path d="m 6142.65,3423.66 h 368.12 v -109.17 h -240 v -146.16 h 203.91 v -109.18 h -203.91 v -157.89 h 240 v -109.17 h -368.12 v 631.57" style="fill:#231f20;fill-opacity:1;fill-rule:nonzero;stroke:none" id="path82" inkscape:connector-curvature="0"/><path d="m 6695.75,2965.32 c 37.9,-48.72 88.42,-77.6 139.85,-77.6 50.53,0 81.2,27.07 81.2,73.09 0,112.78 -288.72,87.52 -288.72,297.74 0,100.15 82.11,183.16 202.11,183.16 94.73,0 167.81,-42.41 221.05,-106.47 l -93.84,-83.9 c -36.99,47.81 -78.49,78.49 -126.31,78.49 -44.21,0 -73.08,-28.88 -73.08,-65.87 0,-112.78 288.72,-86.61 288.72,-300.45 -1.81,-117.29 -93.84,-189.47 -209.33,-189.47 -106.46,0 -178.64,38.8 -234.59,105.57 l 92.94,85.71" style="fill:#231f20;fill-opacity:1;fill-rule:nonzero;stroke:none" id="path84" inkscape:connector-curvature="0"/><path d="m 1022.11,837.852 4.63,14.347 c -61.592,11.582 -69.463,11.582 -44.92,78.723 l 25,69 h 68.08 c 30.56,0 31.02,-12.5 26.39,-45.84 h 17.6 l 40.75,111.598 h -17.6 c -15.28,-26.4 -27.32,-45.85 -60.66,-45.85 h -67.14 l 35.65,97.72 c 11.11,31.02 17.6,37.5 59.27,37.5 h 29.64 c 43.07,0 48.16,-11.58 48.16,-55.1 h 17.13 l 14.36,75.94 H 962.836 l -4.629,-14.36 c 49.543,-10.19 54.173,-14.81 31.023,-78.72 L 933.66,930.922 c -23.152,-63.434 -32.875,-68.531 -89.836,-78.723 l -4.168,-14.347 z M 1376.81,1024 c 8.8,30.1 4.17,56.5 -18.98,56.5 -27.32,0 -34.27,-20.84 -62.06,-80.578 v 34.268 c 0,24.54 -7.87,46.31 -30.09,46.31 -25.94,0 -49.55,-40.29 -67.61,-80.11 h 12.04 c 12.5,18.05 24.08,28.71 33.34,28.71 11.11,0 17.13,-17.14 0,-55.108 l -50.01,-111.14 c -9.26,-20.832 0.46,-34.262 20.84,-34.262 12.5,0 18.06,3.23 23.15,16.672 l 49.09,130.117 c 13.89,17.141 26.39,31.951 42.14,48.621 z m 225.05,67.15 -19.45,1.39 -21.76,-21.3 h -4.64 c -105.57,0 -196.8,-118.549 -196.8,-204.681 0,-24.079 14.82,-37.969 37.97,-37.969 27.32,0 54.18,38.898 84.28,80.57 l -1.39,-14.82 c -3.7,-42.598 9.26,-65.75 31.49,-65.75 25.93,0 49.55,40.281 67.61,80.109 h -12.04 c -12.5,-18.058 -24.08,-28.711 -33.34,-28.711 -9.72,0 -16.67,17.594 0,55.102 z M 1406.91,900.832 c 0,56.949 63.44,134.278 99.09,134.278 7.87,0 15.29,-0.92 21.77,-2.77 l -37.05,-98.641 c -21.3,-25.929 -54.18,-57.41 -69.46,-57.41 -8.8,0 -14.35,7.402 -14.35,24.543 m 233.84,144.008 h 42.6 l -67.61,-184.758 c -6.02,-15.75 2.32,-31.492 18.53,-31.492 38.43,0 100.48,37.969 122.25,89.832 h -12.04 c -17.13,-18.063 -50.01,-42.133 -78.26,-47.231 l 62.05,173.649 h 63.44 l 7.87,26.4 H 1738 l 23.61,66.68 h -24.54 l -43.99,-66.68 -52.33,-7.41 z m 302.39,-126.879 h -15.75 c -19.91,-23.621 -41.21,-42.141 -62.51,-42.141 -21.77,0 -32.88,12.969 -32.88,42.141 0,12.039 1.39,24.078 3.7,35.191 l 128.27,42.137 c 25.01,59.281 -5.09,85.211 -40.29,85.211 -60.65,0 -129.65,-101.418 -129.65,-190.328 0,-39.82 18.98,-61.582 48.62,-61.582 34.73,0 70.85,33.801 100.49,89.371 m -44,128.269 c 17.14,0 31.96,-12.97 24.09,-45.84 l -79.65,-18.531 c 13.89,37.041 37.04,64.371 55.56,64.371 M 2183.47,1024 c 8.8,30.1 4.16,56.5 -18.99,56.5 -27.32,0 -34.26,-20.84 -62.05,-80.578 v 34.268 c 0,24.54 -7.87,46.31 -30.1,46.31 -25.93,0 -49.55,-40.29 -67.61,-80.11 h 12.05 c 12.5,18.05 24.07,28.71 33.34,28.71 11.11,0 17.13,-17.14 0,-55.108 l -50.02,-111.14 c -9.26,-20.832 0.46,-34.262 20.84,-34.262 12.51,0 18.06,3.23 23.15,16.672 l 49.09,130.117 c 13.89,17.141 26.39,31.951 42.14,48.621 z m 0.92,-161.148 c -9.26,-20.832 0.46,-34.262 20.84,-34.262 12.5,0 18.06,3.23 23.15,16.672 l 49.08,130.117 c 22.69,27.781 69.47,57.421 87.99,57.421 13.43,0 11.57,-11.11 2.78,-27.78 l -75.48,-144.938 c -7.41,-14.363 2.31,-31.492 18.52,-31.492 37.04,0 81.04,33.34 98.64,80.109 h -12.05 c -12.04,-17.14 -32.41,-36.117 -51.4,-39.367 l 64.83,131.058 c 8.34,16.67 12.51,32.41 12.51,44.91 0,21.31 -12.04,35.2 -34.27,35.2 -31.95,0 -64.37,-36.13 -102.8,-80.578 v 34.268 c 0,24.54 -7.87,46.31 -30.1,46.31 -13.89,0 -27.33,-12.05 -39.83,-29.17 v -4.63 c 24.08,1.38 34.74,-34.74 17.6,-72.708 z m 407.96,283.398 c 16.67,0 30.56,13.43 30.56,30.56 0,16.67 -13.89,30.57 -30.56,30.57 -17.14,0 -30.57,-13.9 -30.57,-30.57 0,-17.13 13.43,-30.56 30.57,-30.56 m -12.97,-92.61 c 5.1,17.13 -6.48,26.86 -15.28,26.86 -37.05,0 -81.04,-33.34 -98.63,-80.11 h 12.04 c 12.03,17.13 32.41,36.11 51.4,39.35 l -70.86,-184.291 c -6.47,-17.14 6.49,-26.859 15.29,-26.859 35.19,0 76.4,33.801 94,80.109 h -12.04 c -12.04,-17.14 -32.41,-36.117 -51.4,-39.367 z m 57.41,-8.8 h 42.61 l -67.61,-184.758 c -6.02,-15.75 2.31,-31.492 18.53,-31.492 38.43,0 100.48,37.969 122.24,89.832 h -12.03 c -17.14,-18.063 -50.02,-42.133 -78.27,-47.231 l 62.05,173.649 h 63.45 l 7.87,26.4 h -61.59 l 23.62,66.68 h -24.55 l -43.99,-66.68 -52.33,-7.41 z m 276.91,59.27 90.31,84.29 v 9.71 h -48.63 l -55.57,-94 z m 25.47,-186.149 h -15.74 c -19.91,-23.621 -41.22,-42.141 -62.51,-42.141 -21.77,0 -32.88,12.969 -32.88,42.141 0,12.039 1.39,24.078 3.7,35.191 l 128.27,42.137 c 25.01,59.281 -5.09,85.211 -40.29,85.211 -60.65,0 -129.65,-101.418 -129.65,-190.328 0,-39.82 18.98,-61.582 48.62,-61.582 34.73,0 70.85,33.801 100.48,89.371 m -43.99,128.269 c 17.14,0 31.96,-12.97 24.08,-45.84 l -79.64,-18.531 c 13.89,37.041 37.04,64.371 55.56,64.371" style="fill:#231f20;fill-opacity:1;fill-rule:nonzero;stroke:none" id="path86" inkscape:connector-curvature="0"/><path d="m 1113.8,1777.42 90.29,62.05 v 9.72 h -54.64 l -50.01,-71.77 z m -37.05,-194.03 c 30.56,0 31.03,-12.5 26.39,-45.84 h 17.6 l 40.75,111.6 h -17.6 c -15.28,-26.4 -27.31,-45.85 -60.66,-45.85 h -67.14 l 33.8,93.07 c 11.11,31.03 17.6,37.05 59.27,37.05 h 29.64 c 43.07,0 48.16,-11.58 48.16,-54.63 h 17.13 l 14.36,75.93 H 962.836 l -4.629,-14.35 c 49.543,-10.19 54.173,-14.82 31.023,-78.72 l -55.57,-151.89 c -23.152,-63.43 -32.875,-68.53 -89.836,-78.72 l -4.168,-14.35 h 284.324 l 50.94,80.57 h -19.45 c -32.42,-30.56 -73.16,-59.73 -130.12,-59.73 -75.479,0 -68.537,3.24 -43.53,72.23 l 26.86,73.63 z m 323.69,-198.2 c 0,29.64 -26.4,40.3 -69.47,53.25 -37.04,11.12 -53.71,14.36 -53.71,26.4 0,9.73 7.87,21.31 23.62,29.64 60.66,3.24 100.02,57.88 100.02,103.73 0,9.73 -1.85,18.06 -5.1,25.47 h 51.4 l 7.88,26.4 h -81.5 c -9.73,6.01 -21.3,9.25 -32.88,9.25 -64.37,0 -106.04,-56.49 -106.04,-102.33 0,-34.74 22.22,-56.5 49.08,-61.59 -30.1,-13.43 -46.77,-29.17 -46.77,-47.7 0,-10.65 3.71,-18.06 12.51,-25.01 -69.47,-20.37 -96.79,-43.52 -96.79,-76.4 0,-31.96 42.14,-45.39 92.15,-45.39 84.75,0 155.6,45.85 155.6,84.28 m -100.49,126.89 c -15.28,0 -21.3,12.97 -21.3,27.78 0,41.21 22.23,101.88 56.95,101.88 15.29,0 21.31,-12.97 21.31,-27.79 0,-41.21 -22.23,-101.87 -56.96,-101.87 m -95.86,-149.57 c 0,24.54 23.62,39.82 57.43,53.25 11.11,-5.56 27.78,-11.58 50.01,-18.99 35.19,-11.58 48.62,-16.21 48.62,-26.85 0,-22.7 -38.44,-39.83 -90.76,-39.83 -44,0 -65.3,9.26 -65.3,32.42 m 471.4,307.48 -19.45,1.38 -21.76,-21.29 h -4.63 c -105.58,0 -196.81,-118.55 -196.81,-204.68 0,-24.08 14.82,-37.98 37.98,-37.98 27.32,0 54.17,38.91 84.28,80.58 l -1.4,-14.82 c -3.7,-42.61 9.27,-65.76 31.49,-65.76 25.94,0 49.55,40.29 67.61,80.12 h -12.04 c -12.5,-18.07 -24.08,-28.71 -33.34,-28.71 -9.72,0 -16.67,17.59 0,55.1 z m -194.95,-190.33 c 0,56.96 63.44,134.29 99.1,134.29 7.87,0 15.28,-0.93 21.76,-2.78 l -37.04,-98.63 c -21.31,-25.93 -54.18,-57.43 -69.46,-57.43 -8.8,0 -14.36,7.42 -14.36,24.55 m 245.42,-31.49 129.2,338.51 -4.17,5.09 -81.04,-9.26 v -9.73 l 15.75,-12.03 c 14.35,-11.11 9.72,-21.77 -3.25,-56.04 l -100.94,-265.8 c -7.41,-14.35 2.31,-31.49 18.52,-31.49 37.04,0 76.41,33.35 94,80.12 h -12.04 c -12.04,-17.14 -37.04,-36.13 -56.03,-39.37 m 246.35,276.91 c 16.68,0 30.57,13.43 30.57,30.57 0,16.67 -13.89,30.57 -30.57,30.57 -17.13,0 -30.56,-13.9 -30.56,-30.57 0,-17.14 13.43,-30.57 30.56,-30.57 m -12.96,-92.6 c 5.09,17.13 -6.49,26.85 -15.28,26.85 -37.05,0 -81.04,-33.34 -98.64,-80.1 h 12.04 c 12.04,17.12 32.42,36.11 51.4,39.35 l -70.84,-184.3 c -6.49,-17.13 6.48,-26.86 15.27,-26.86 35.2,0 76.41,33.81 94.01,80.12 h -12.04 c -12.04,-17.14 -32.42,-36.13 -51.4,-39.37 z m 57.42,-8.8 h 42.6 l -67.61,-184.77 c -6.02,-15.74 2.32,-31.49 18.52,-31.49 38.43,0 100.48,37.98 122.25,89.84 h -12.04 c -17.13,-18.06 -50.01,-42.15 -78.26,-47.23 l 62.05,173.65 h 63.44 l 7.88,26.4 h -61.59 l 23.61,66.67 h -24.54 l -43.99,-66.67 -52.32,-7.42 z m 276.9,59.27 90.3,84.27 v 9.73 h -48.62 l -55.57,-94 z m 25.47,-186.16 h -15.74 c -19.92,-23.61 -41.21,-42.13 -62.52,-42.13 -21.76,0 -32.87,12.96 -32.87,42.13 0,12.04 1.38,24.09 3.7,35.2 l 128.27,42.14 c 25.01,59.28 -5.09,85.2 -40.28,85.2 -60.67,0 -129.67,-101.41 -129.67,-190.32 0,-39.82 18.99,-61.59 48.63,-61.59 34.73,0 70.84,33.81 100.48,89.37 m -43.99,128.28 c 17.13,0 31.95,-12.97 24.08,-45.84 l -79.65,-18.53 c 13.89,37.04 37.05,64.37 55.57,64.37" style="fill:#231f20;fill-opacity:1;fill-rule:nonzero;stroke:none" id="path88" inkscape:connector-curvature="0"/><path d="M 1130.47,2333.56 H 961.906 l -4.629,-14.35 c 49.543,-10.19 54.183,-14.82 31.028,-78.72 L 933.66,2088.6 c -23.152,-63.45 -32.875,-68.53 -89.836,-78.72 l -4.168,-14.36 H 1096.2 l 55.57,99.1 h -19.45 c -31.49,-34.73 -68.54,-78.27 -125.5,-78.27 -43.058,0 -48.156,7.42 -25,72.25 l 54.64,151.89 c 22.69,63.43 32.88,68.53 89.84,78.72 z m 186.61,-29.64 c 16.67,0 30.56,13.43 30.56,30.57 0,16.67 -13.89,30.56 -30.56,30.56 -17.14,0 -30.56,-13.89 -30.56,-30.56 0,-17.14 13.42,-30.57 30.56,-30.57 m -12.97,-92.6 c 5.1,17.12 -6.48,26.85 -15.28,26.85 -37.05,0 -81.04,-33.34 -98.63,-80.12 h 12.03 c 12.05,17.14 32.42,36.13 51.41,39.37 l -70.85,-184.3 c -6.49,-17.14 6.48,-26.86 15.28,-26.86 35.19,0 76.41,33.81 94,80.11 h -12.04 c -12.04,-17.13 -32.41,-36.12 -51.4,-39.36 z m 251.9,-24.56 c 0,37.51 -13.89,51.41 -39.82,51.41 -32.41,0 -62.97,-34.27 -93.54,-75.95 l 77.33,203.3 -4.16,5.08 -81.04,-9.25 v -9.73 l 15.75,-12.04 c 14.35,-11.12 9.72,-22.69 -3.25,-56.03 l -83.35,-214.86 c -6.02,-15.74 -13.43,-34.27 -13.43,-39.37 0,-22.22 30.1,-43.06 57.42,-43.06 62.98,0 168.09,113.45 168.09,200.5 m -145.86,-162.99 c -12.51,0 -30.56,11.58 -30.56,21.76 0,3.25 5.55,17.6 12.5,35.66 l 20.84,55.11 c 22.22,26.39 56.03,54.63 75.01,54.63 11.58,0 20.38,-7.41 20.38,-24.54 0,-50.48 -47.23,-142.62 -98.17,-142.62 m 314.42,51.86 h -15.75 c -19.91,-23.61 -41.21,-42.14 -62.51,-42.14 -21.77,0 -32.88,12.97 -32.88,42.14 0,12.04 1.39,24.08 3.71,35.2 l 128.26,42.14 c 25.01,59.26 -5.09,85.2 -40.28,85.2 -60.66,0 -129.66,-101.42 -129.66,-190.32 0,-39.83 18.99,-61.59 48.62,-61.59 34.73,0 70.85,33.81 100.49,89.37 m -44,128.27 c 17.14,0 31.96,-12.97 24.09,-45.85 l -79.65,-18.51 c 13.89,37.04 37.04,64.36 55.56,64.36 m 284.33,-22.22 c 8.8,30.09 4.17,56.49 -18.98,56.49 -27.33,0 -34.27,-20.84 -62.06,-80.58 v 34.27 c 0,24.54 -7.87,46.31 -30.1,46.31 -25.93,0 -49.54,-40.29 -67.6,-80.12 h 12.04 c 12.5,18.07 24.07,28.71 33.34,28.71 11.11,0 17.13,-17.12 0,-55.09 l -50.01,-111.15 c -9.27,-20.84 0.46,-34.26 20.83,-34.26 12.51,0 18.06,3.24 23.16,16.67 l 49.08,130.12 c 13.89,17.13 26.39,31.96 42.14,48.63 z m 33.34,20.84 h 33.8 l -67.61,-184.77 c -6.02,-15.74 2.32,-31.49 18.52,-31.49 38.44,0 100.49,37.98 122.25,89.83 h -12.04 c -17.13,-18.06 -50.01,-42.14 -78.25,-47.23 l 62.05,173.66 h 63.44 l 7.87,26.38 h -61.59 l 23.62,66.69 h -24.55 l -43.98,-66.69 -43.53,-7.4 z m 265.33,59.26 90.3,84.28 v 9.73 h -48.63 l -55.56,-94.01 z m 25.47,-186.15 h -15.75 c -19.91,-23.61 -41.21,-42.14 -62.51,-42.14 -21.77,0 -32.88,12.97 -32.88,42.14 0,12.04 1.39,24.08 3.7,35.2 l 128.28,42.14 c 25,59.26 -5.1,85.2 -40.29,85.2 -60.67,0 -129.66,-101.42 -129.66,-190.32 0,-39.83 18.98,-61.59 48.62,-61.59 34.73,0 70.85,33.81 100.49,89.37 m -43.99,128.27 c 17.13,0 31.94,-12.97 24.07,-45.85 l -79.64,-18.51 c 13.89,37.04 37.04,64.36 55.57,64.36" style="fill:#231f20;fill-opacity:1;fill-rule:nonzero;stroke:none" id="path90" inkscape:connector-curvature="0"/><path d="m 1514.29,6812.84 c -1.58,1.59 4.76,0 6.34,3.17 -4.75,0 -7.92,0 -12.68,0 -1.58,0 -1.58,1.59 -1.58,3.18 -7.92,-1.59 -17.44,-4.76 -25.36,-6.35 -11.09,-3.16 -20.6,-11.09 -33.28,-14.26 -17.43,-6.34 -31.69,-20.6 -50.71,-26.94 -1.59,0 -1.59,1.58 -1.59,3.17 1.59,4.76 7.93,6.34 11.1,11.1 0,1.58 0,3.16 -1.59,3.16 12.68,17.44 30.12,26.94 45.97,41.21 0,1.58 0,3.17 0,4.75 4.75,6.34 12.67,9.51 15.84,17.44 1.59,4.75 7.93,11.09 15.85,14.26 -1.59,1.58 -4.76,1.58 -4.76,4.75 -6.34,0 -12.68,-3.17 -19.01,1.59 2.95,2.95 6.34,4.58 9.93,5.63 -1.36,0.28 -2.59,0.95 -3.6,2.29 -1.58,3.17 3.07,6.71 7.93,7.92 6.34,1.59 14.26,1.59 19.02,6.35 -11.1,1.58 -23.77,-3.18 -34.87,3.16 7.92,20.61 20.6,38.04 39.62,47.54 1.59,0 4.75,0 4.75,-1.58 0,-7.92 -4.75,-14.26 -12.68,-15.85 12.68,-3.17 25.36,-3.17 38.04,-9.5 -1.58,-3.17 -4.76,-1.59 -6.34,-1.59 7.93,-4.75 17.43,-1.58 25.36,-7.93 -4.76,-4.75 -9.51,0 -14.26,0 49.13,-14.25 101.42,-25.35 142.62,-57.04 -34.86,-17.44 -71.31,-25.36 -109.35,-33.28 -4.75,0 -7.92,0 -12.67,1.58 0,-1.58 0,-4.76 -1.59,-4.76 -6.33,0 -11.09,0 -15.84,-3.17 -6.34,-3.16 -15.85,-4.75 -20.61,0 z m -32.45,-110.24 c -0.13,-0.09 -0.26,-0.18 -0.39,-0.27 -5.94,-4.18 -11.85,-8.44 -18.1,-12.07 -6.77,-3.93 -13.87,-6.92 -20.91,-10.26 -0.05,0.13 -0.11,0.26 -0.2,0.38 -0.53,0.74 -1.64,1.2 -2.68,0.64 -5.99,-3.24 -11.1,-7.53 -15.95,-12.15 -0.74,-0.7 -1.47,-1.41 -2.2,-2.13 -0.04,-0.04 -0.09,-0.08 -0.13,-0.12 -0.04,-0.04 -0.08,-0.08 -0.12,-0.12 -0.76,-0.75 -1.51,-1.49 -2.26,-2.25 -0.08,-0.08 -0.18,-0.17 -0.26,-0.26 -0.05,-0.05 -0.06,-0.1 -0.1,-0.15 -1.13,-1.12 -2.21,-2.25 -3.44,-3.7 -0.8,-0.94 -1.07,-1.52 -2.12,-2.22 -0.99,-0.65 -3.71,-0.64 -3.46,1.19 0.01,0.1 0.01,0.2 0.02,0.31 -0.94,-0.5 -1.87,-0.99 -2.81,-1.44 -0.88,-0.42 -1.67,-0.89 -2.48,-1.36 -0.35,0.13 -0.72,0.18 -1.09,0.16 -0.4,-0.03 -0.8,-0.12 -1.15,-0.39 -1.93,-1.52 -3.85,-3.13 -5.72,-4.82 -3.3,-3 -6.42,-6.27 -9.2,-9.78 -0.05,-0.04 -0.09,-0.09 -0.14,-0.14 -0.1,-0.15 -0.2,-0.3 -0.31,-0.44 -0.16,-0.21 -0.32,-0.41 -0.47,-0.62 -0.17,-0.22 -0.34,-0.43 -0.51,-0.65 -0.05,-0.07 -0.1,-0.13 -0.15,-0.2 -0.38,-0.51 -0.72,-1.05 -1.07,-1.57 -0.03,-0.03 -0.05,-0.07 -0.07,-0.1 -0.27,-0.29 -0.72,-0.5 -1.3,-0.62 -0.21,0.32 -0.43,0.62 -0.64,0.95 -0.15,0.24 -0.29,0.5 -0.44,0.76 -0.47,0.82 -0.92,1.67 -1.35,2.54 -0.01,0.03 -0.03,0.06 -0.04,0.09 -0.13,0.26 -0.26,0.53 -0.38,0.79 1.72,1.85 3.38,3.75 4.98,5.7 0.11,0.13 0.21,0.26 0.32,0.39 0.55,0.67 1.1,1.35 1.64,2.04 0.9,1.12 1.78,2.25 2.66,3.38 0.32,0.42 0.65,0.84 0.96,1.26 1.75,2.27 3.41,4.48 4.96,6.69 0.04,0.06 0.08,0.12 0.12,0.17 0.23,0.34 0.46,0.67 0.68,1 0.76,1.12 1.49,2.26 2.17,3.41 0.62,1.03 1.2,2.08 1.74,3.16 0.04,0.08 0.08,0.15 0.12,0.23 0.06,0.11 0.12,0.22 0.17,0.33 0.1,0.19 0.17,0.4 0.26,0.59 0.56,1.2 1.06,2.43 1.51,3.7 0.05,0.13 0.09,0.27 0.13,0.41 0.13,0.34 0.25,0.68 0.36,1.04 0.18,0.57 0.34,1.15 0.49,1.74 l 0.01,0.01 c 0.03,0.13 0.06,0.26 0.09,0.38 0.19,0.77 0.4,1.53 0.55,2.33 0.08,0.42 -0.03,0.76 -0.19,1.07 1.7,2.97 3.85,5.83 6.28,8.55 -0.23,-0.14 -0.5,-0.27 -0.73,-0.41 -2.26,-1.46 -3.77,-3.5 -5.88,-5.08 -1.73,-1.29 -4.91,0.84 -2.86,2.37 1.39,1.04 2.45,2.18 3.6,3.27 0.06,0.09 0.09,0.17 0.17,0.25 2.62,2.58 5.11,5.88 8.09,8.05 1.82,1.33 3.39,2.44 4.87,3.72 0.23,0.2 0.46,0.42 0.7,0.63 1.09,1.46 2.29,2.77 3.54,4 0.05,0.05 0.1,0.11 0.17,0.16 15.16,14.63 40.7,13.99 60.7,23.32 7.92,3.17 17.43,-1.59 25.35,0 4.76,0 9.51,0 14.26,-3.17 -14.23,-7.77 -27.39,-16.52 -40.37,-24.67 z m 28.4,-13.09 c -0.72,-1.74 -2.33,-3.24 -3.9,-4.63 1.97,-0.4 3.36,-1.27 2.09,-2.45 -3.69,-3.37 -7.19,-6.75 -12.02,-8.38 -0.33,-0.11 -1.29,-0.26 -2.43,-0.33 -1.95,-1.88 -3.89,-3.75 -5.92,-5.54 -1.88,-1.66 -10.59,-0.46 -7.93,1.9 4.03,3.56 7.75,7.44 11.72,11.06 2.24,2.05 4.6,4.01 6.59,6.31 1.1,1.28 2.01,2.53 3.4,3.51 1.3,0.92 9.68,1.66 8.4,-1.45 z m -73.6,237.44 c -1.58,-3.17 -3.34,-3.51 -4.75,-6.34 -1.59,-3.17 -3.17,-4.75 -6.35,-6.34 -1.58,0 -3.16,0 -3.16,1.59 1.58,6.33 6.34,12.67 12.68,14.26 1.58,0 1.58,-1.59 1.58,-3.17 z m -131.53,-104.59 c 0,0 -1.59,1.58 -1.59,3.16 20.6,26.95 36.45,52.3 50.71,80.82 20.61,11.1 37.71,27.25 53.88,44.38 26.95,28.53 55.47,53.88 88.75,69.73 12.68,4.75 28.53,3.17 41.2,-1.59 -4.75,-6.33 -12.67,-4.75 -19.01,-9.5 -1.59,0 -3.17,0 -4.76,1.58 1.59,1.59 1.59,3.17 1.59,4.76 -15.85,-17.44 -38.04,-25.36 -50.72,-45.96 -9.5,-15.85 -15.84,-36.45 -36.44,-41.21 -6.34,-1.58 1.58,4.76 -1.59,3.17 -49.13,-30.11 -83.99,-66.56 -122.02,-109.34 z m 242.47,-34.87 c -3.17,0 -9.52,-1.58 -7.93,1.58 1.58,7.93 12.68,7.93 19.01,11.1 3.18,1.58 7.93,4.75 11.1,3.17 3.17,-4.76 7.92,-3.17 11.1,-6.34 -9.51,-9.51 -22.2,-4.76 -33.28,-9.51 z m 243.7,-113.53 c 9,9.01 18.09,18.67 27.12,28.37 h -0.2 c 16.85,19.05 33.34,37.22 52.86,53.95 5.95,5.31 11.72,9.99 17.24,13.78 1.58,1.58 1.58,4.75 3.17,6.34 -7.93,-3.18 -12.68,-9.51 -20.61,-12.68 -1.58,0 -3.16,1.58 -1.58,3.17 5.64,4.23 11.29,8.46 16.93,12.7 -0.35,-0.02 -0.71,-0.02 -1.08,-0.02 -1.59,0 -1.59,1.58 -1.59,3.17 -20.6,3.17 -36.45,-11.1 -50.71,-23.78 -3.17,-1.58 -6.34,1.59 -7.92,1.59 -23.77,-7.93 -41.21,-28.53 -64.98,-38.04 0,1.59 0,1.59 0,3.18 -9.51,-3.18 -18.74,-8.93 -28.53,-11.1 -14.26,-3.17 -26.93,-1.59 -39.62,-1.59 -19.2,-1.91 -38.41,-6.15 -57.62,-10.25 -0.55,-0.15 -1.11,-0.27 -1.66,-0.42 -10.3,-2.82 -20.03,-6.66 -29.53,-11.89 -0.36,-0.2 -0.72,-0.41 -1.08,-0.63 -0.79,-0.99 -1.56,-1.94 -2.29,-2.74 -3.41,-3.75 -6.35,-7.18 -10.87,-9.49 -9.74,-4.95 -17.69,-13.58 -26.28,-20.59 -0.62,-0.5 -1.55,-0.75 -2.54,-0.8 -8.5,-8.16 -16.89,-16.43 -25.52,-24.44 -0.61,-0.56 -3.06,-0.87 -4.84,-0.58 0.04,0.06 0.1,0.09 0.14,0.15 0.29,0.5 0.61,1.01 0.9,1.51 1.34,2.24 2.7,4.47 4.07,6.68 1.53,2.48 3.1,4.94 4.7,7.37 2.16,3.27 4.38,6.51 6.74,9.65 0.62,0.81 0.45,1.54 -0.05,2.08 -0.51,0.52 -1.35,0.83 -2.19,0.82 7.9,7.67 17.3,14.21 26.59,19.85 0,0.1 0,0.18 0,0.27 -1.06,-0.36 -2.59,0.48 -1.79,1.6 1.01,1.4 1.79,2.89 2.73,4.32 0.18,0.47 0.34,0.94 0.51,1.41 -0.4,0.42 -0.8,0.83 -1.2,1.25 -2.55,-1.67 -5.28,-3.25 -7.45,-5.2 -3.79,-3.42 -6.76,-10.41 -12.51,-10.34 -0.38,0 -1.5,0.06 -2.4,0.34 -0.69,0.12 -1.29,0.31 -1.67,0.56 0.07,0.13 0.14,0.25 0.21,0.37 0.08,0.15 0.15,0.29 0.24,0.44 0.07,0.14 0.15,0.27 0.22,0.41 0.25,0.45 0.5,0.91 0.76,1.36 0.25,0.46 0.5,0.91 0.75,1.37 0.21,0.36 0.41,0.73 0.61,1.1 0.38,0.67 0.74,1.34 1.12,2.01 0.28,0.48 0.56,0.95 0.84,1.43 0.67,1.17 1.36,2.33 2.04,3.5 0.33,0.56 0.65,1.12 0.98,1.68 0.56,0.96 1.11,1.93 1.68,2.88 0.79,1.32 -0.04,2.4 -1.19,2.83 2.94,3.81 6.53,7 10.85,9.46 h -0.47 c 6.06,3.05 12.13,6.77 18.2,10.18 0.87,0.75 1.74,1.52 2.62,2.26 -9.05,-3.03 -17.17,-7.15 -25.21,-12.44 0,0 -2.08,-0.85 -2.68,-1.44 0,0 -1.82,-0.69 -3.95,1.44 -0.21,0.29 -0.38,0.65 -0.38,1.17 1.59,3.17 6.34,4.75 9.51,7.92 1.58,0 3.17,0 3.17,-1.58 50.71,39.62 120.44,30.1 179.08,50.71 4.75,3.17 9.51,6.34 14.26,9.51 7.92,3.16 14.26,11.09 23.77,15.85 12.68,9.5 22.19,20.6 26.94,36.45 0,1.58 -1.58,3.16 -1.58,3.16 -20.6,-22.18 -44.37,-39.61 -69.73,-52.3 -33.28,-17.43 -69.73,-14.26 -104.6,-19.01 1.59,3.17 4.76,3.17 7.93,3.17 0,4.76 3.17,6.34 6.34,9.51 1.58,0 3.17,0 4.75,0 1.59,0 1.59,3.17 3.17,3.17 3.17,0 7.93,1.58 6.34,1.58 -4.76,6.34 -14.26,-4.75 -22.19,0 3.18,3.17 1.59,7.93 4.76,9.51 1.58,0 4.75,0 6.34,0 0,3.17 3.17,6.34 3.17,6.34 23.77,14.26 45.96,25.35 68.14,38.03 -4.75,0 -7.92,-4.75 -12.68,-1.58 3.17,0 0,4.75 3.17,4.75 17.43,4.76 31.7,14.27 49.13,20.6 -6.33,0 -11.1,-4.75 -17.43,0 3.17,1.59 4.75,4.76 9.51,4.76 0,1.59 0,3.17 0,4.75 0,1.59 1.59,1.59 3.17,1.59 -1.58,0 -3.17,1.58 -3.17,1.58 1.59,3.17 6.34,1.59 9.51,4.76 -1.59,0 -4.76,0 -4.76,1.58 4.76,6.34 12.68,7.93 20.6,9.51 -1.58,3.17 -6.34,0 -6.34,3.17 0,1.59 1.59,1.59 3.17,1.59 -1.58,0 -1.58,0 -3.17,0 -3.17,1.58 -1.58,4.75 -1.58,6.33 9.51,11.1 9.51,25.36 14.26,38.04 -1.58,0 -3.17,0 -3.17,1.58 -15.85,-17.43 -41.2,-23.77 -64.97,-30.11 -1.59,0 -6.34,0 -7.93,0 -7.92,-3.16 -19.02,-3.16 -26.93,1.59 -6.35,3.17 -9.52,7.92 -15.85,12.68 -12.68,7.92 -25.36,14.26 -39.62,19.01 -39.62,12.68 -80.82,19.02 -122.03,17.44 17.43,9.5 36.66,10.31 55.47,15.84 26.94,7.93 52.29,17.43 80.82,15.85 -4.76,1.58 -11.09,0 -15.85,0 -22.18,1.58 -44.38,-4.75 -68.15,-9.51 -15.84,-3.17 -30.1,-9.51 -45.95,-12.68 -9.51,-3.16 -14.26,-12.68 -25.36,-11.09 0,0 0,3.17 0,4.76 15.85,19.01 34.86,38.03 60.23,39.62 28.52,4.75 55.46,0 83.99,-3.17 20.6,-1.59 39.61,-6.35 60.21,-11.1 7.93,0 9.52,-12.68 15.85,-14.26 9.51,-3.17 19.02,0 28.53,-6.34 0,3.17 -1.59,6.34 0,9.51 6.34,6.34 14.26,-1.59 20.61,1.58 12.67,7.93 -11.1,22.19 -17.44,33.28 0,1.58 1.58,3.17 1.58,3.17 12.68,-11.09 22.19,-23.77 38.04,-31.69 7.92,-3.17 26.94,-7.93 23.77,1.58 -7.92,17.44 -23.77,31.7 -36.45,47.54 0,1.59 0,4.76 0,6.35 -3.17,0 -3.17,1.58 -4.75,3.16 0,1.59 0,4.76 0,6.34 -6.34,3.17 -4.75,9.51 -7.93,14.27 -4.75,7.92 -1.59,19.01 -4.75,28.52 -3.17,9.51 -4.76,17.43 -6.34,26.94 -4.75,26.94 -11.1,50.71 -14.26,76.07 -3.17,30.11 17.43,53.88 31.69,80.82 11.09,19.02 23.77,38.04 44.37,50.72 4.76,19.01 17.44,34.86 30.12,50.71 12.65,15.46 33.68,24.89 48.91,31.7 22.14,9.88 42.12,16.07 42.13,16.07 H 837.844 v -838.64 h 770.216 c 30.18,21.72 60.31,32.04 102.42,52.79 19.88,9.8 65.38,30.7 80.8,46.11" style="fill:#283a7f;fill-opacity:1;fill-rule:nonzero;stroke:none" id="path92" inkscape:connector-curvature="0"/><path d="m 3144.1,7413.7 h -902.14 c 0,0 1.7,-0.28 8.57,-3.96 7.32,-3.93 16.8,-9 22.76,-12.11 11.62,-6.09 22.93,-13.71 30.21,-25.36 3.18,-4.76 7.93,-14.27 4.76,-20.6 -3.17,-7.93 -4.76,-20.61 -12.68,-23.78 -9.51,-4.75 -22.19,-4.75 -33.28,-3.17 -6.34,0 -12.68,1.59 -19.01,3.17 23.76,-9.5 45.95,-20.6 61.8,-42.78 1.59,-3.17 7.93,-4.76 14.26,-4.76 1.59,0 1.59,-3.17 1.59,-4.75 -3.17,-3.17 -6.34,-4.76 -4.76,-9.51 1.59,0 3.17,0 4.76,0 7.92,3.17 6.33,19.02 17.43,14.26 7.93,-4.75 11.09,-15.85 6.34,-23.77 -6.34,-6.34 -12.68,-11.09 -19.02,-15.85 -1.58,-3.17 -1.58,-7.92 0,-11.09 4.76,-6.34 6.34,-12.68 7.93,-19.02 4.75,-11.09 6.33,-23.77 11.09,-34.86 6.34,-23.78 12.68,-47.55 11.09,-71.32 0,-12.68 -6.34,-23.77 -1.58,-36.45 3.17,-12.68 11.09,-22.19 17.43,-33.28 6.34,-9.51 12.68,-15.85 17.43,-25.35 9.51,-15.85 26.94,-31.7 19.02,-50.72 -4.76,-11.09 -22.19,-9.5 -33.28,-15.85 -9.51,-7.92 -1.58,-20.6 3.17,-28.52 7.92,-14.26 -9.51,-23.77 -20.6,-28.53 3.16,-4.75 9.5,-3.16 11.09,-6.33 1.59,-7.93 9.51,-12.68 4.76,-20.61 -6.35,-9.51 -25.36,-14.26 -15.85,-28.52 6.34,-11.09 2.23,-23.42 -1.59,-34.87 -4.75,-14.26 -17.43,-20.6 -28.53,-23.77 -9.5,-3.17 -20.59,-3.17 -30.1,-1.58 -3.17,1.58 -6.34,3.16 -9.51,3.16 -26.94,3.18 -53.88,11.1 -80.83,11.1 -7.92,-1.58 -15.85,-3.17 -22.18,-6.34 -7.16,-5.25 -13.53,-10.96 -19.19,-16.96 -0.06,-0.07 -0.12,-0.14 -0.18,-0.21 -1.19,-1.26 -2.34,-2.55 -3.46,-3.84 -0.69,-0.8 -1.37,-1.61 -2.04,-2.43 -0.46,-0.54 -0.91,-1.09 -1.35,-1.64 -4.63,-5.79 -8.78,-11.9 -12.48,-18.26 -0.23,-0.4 -0.47,-0.81 -0.7,-1.21 -0.41,-0.73 -0.81,-1.48 -1.22,-2.22 -5.2,-9.63 -9.14,-19.46 -12,-29.07 -10.77,-36.3 -6.07,-67.43 1.5,-74.99 2.1,-2.1 52.31,-17.61 87.27,-33.16 16.41,-7.3 27.89,-12.92 37.41,-18.93 h 885.89 v 838.64" style="fill:#ed1c24;fill-opacity:1;fill-rule:nonzero;stroke:none" id="path94" inkscape:connector-curvature="0"/><path d="m 2295.62,7107.76 c 6.34,-1.59 15.85,-1.59 15.85,-4.76 -3.17,-12.67 -22.19,-15.84 -31.7,-28.53 h -4.76 c -4.75,-3.16 -3.17,-11.09 -7.92,-11.09 -4.76,1.59 -9.51,0 -14.26,-1.58 6.34,-6.34 14.26,-11.1 23.76,-9.51 1.6,0 4.76,-3.18 4.76,-6.35 0,0 1.59,0 3.17,1.6 1.59,0 3.18,0 3.18,-1.6 v -6.33 c -4.76,-6.34 -12.69,-3.17 -19.03,-4.76 12.68,-3.17 25.37,-3.17 36.45,0 9.51,3.17 0,19.02 6.35,26.95 -3.17,0 0,4.75 -3.17,4.75 3.17,3.17 6.33,7.92 9.51,9.51 3.17,0 7.92,1.58 9.5,4.76 0,3.16 -6.33,4.75 -4.75,7.92 9.51,6.34 17.43,15.85 14.26,25.36 -1.58,4.75 -14.26,4.75 -22.19,7.92 -7.92,3.17 -17.43,0 -26.93,-1.58 -7.93,0 -15.86,-4.76 -23.78,-6.34 -11.09,-3.17 -20.6,-9.51 -30.11,-15.85 11.1,4.75 22.19,6.34 34.86,9.51 9.52,0 17.59,2.34 26.95,0" style="fill:#918f90;fill-opacity:1;fill-rule:nonzero;stroke:none" id="path96" inkscape:connector-curvature="0"/></g></g></svg>